<?xml version="1.0" encoding="UTF-8" standalone="no" ?>
<!DOCTYPE svg PUBLIC "-//W3C//DTD SVG 1.1//EN" "http://www.w3.org/Graphics/SVG/1.1/DTD/svg11.dtd">
<svg xmlns="http://www.w3.org/2000/svg" xmlns:xlink="http://www.w3.org/1999/xlink" version="1.1" width="1080" height="1080" viewBox="0 0 1080 1080" xml:space="preserve">
<desc>Created with Fabric.js 5.2.4</desc>
<defs>
</defs>
<rect x="0" y="0" width="100%" height="100%" fill="transparent"></rect>
<g transform="matrix(1 0 0 1 540 540)" id="fcb98e54-7649-4c14-a8c1-0e3a2b33128d"  >
<rect style="stroke: none; stroke-width: 1; stroke-dasharray: none; stroke-linecap: butt; stroke-dashoffset: 0; stroke-linejoin: miter; stroke-miterlimit: 4; fill: rgb(255,4,4); fill-rule: nonzero; opacity: 1;" vector-effect="non-scaling-stroke"  x="-540" y="-540" rx="0" ry="0" width="1080" height="1080" />
</g>
<g transform="matrix(1 0 0 1 540 540)" id="499a9731-3ab9-439f-b7e3-fab07916e24a"  >
</g>
<g transform="matrix(NaN NaN NaN NaN 0 0)"  >
<g style=""   >
</g>
</g>
<g transform="matrix(NaN NaN NaN NaN 0 0)"  >
<g style=""   >
</g>
</g>
<g transform="matrix(NaN NaN NaN NaN 0 0)"  >
<g style=""   >
</g>
</g>
<g transform="matrix(NaN NaN NaN NaN 0 0)"  >
<g style=""   >
</g>
</g>
<g transform="matrix(4.03 0 0 4.03 270.42 831.46)"  >
<g style="" vector-effect="non-scaling-stroke"   >
		<g transform="matrix(1 0 0 1 0 0)"  >
<path style="stroke: none; stroke-width: 1; stroke-dasharray: none; stroke-linecap: butt; stroke-dashoffset: 0; stroke-linejoin: miter; stroke-miterlimit: 4; fill: rgb(255,0,0); fill-rule: nonzero; opacity: 1;" vector-effect="non-scaling-stroke"  transform=" translate(-50, -50)" d="M 50 12.774 C 29.425 12.774 12.773000000000003 29.424999999999997 12.773000000000003 50.001 C 12.773000000000003 70.524 29.424000000000003 87.227 50 87.227 C 70.526 87.227 87.227 70.524 87.227 50.001000000000005 C 87.227 29.425 70.526 12.774 50 12.774 z M 50 83.906 C 31.236 83.906 16.094 68.714 16.094 50.00000000000001 C 16.094 31.236000000000008 31.236 16.09400000000001 50 16.09400000000001 C 68.714 16.09400000000001 83.906 31.236000000000008 83.906 50.00000000000001 C 83.906 68.714 68.714 83.906 50 83.906 z" stroke-linecap="round" />
</g>
		<g transform="matrix(1 0 0 1 22.13 3.98)"  >
<path style="stroke: none; stroke-width: 1; stroke-dasharray: none; stroke-linecap: butt; stroke-dashoffset: 0; stroke-linejoin: miter; stroke-miterlimit: 4; fill: rgb(255,0,0); fill-rule: nonzero; opacity: 1;" vector-effect="non-scaling-stroke"  transform=" translate(-72.13, -53.98)" d="M 80.235 49.295 C 79.982 50.654 78.977 51.005 77.216 50.302 C 76.21 46.981 72.99 46.378 69.66999999999999 45.874 C 71.37799999999999 44.416000000000004 73.99499999999999 43.058 75.35499999999999 46.378 C 77.216 46.931 78.02 45.773 79.88099999999999 46.931 C 80.939 47.032 81.94399999999999 46.980999999999995 83.00099999999999 47.082 C 81.39299999999999 32.443 79.47899999999998 38.328 71.077 35.462 C 67.655 31.186000000000003 66.851 34.204 67.205 41.800000000000004 C 65.142 42.455000000000005 62.477 44.316 65.493 47.886 C 56.940999999999995 54.928000000000004 61.218999999999994 63.282000000000004 72.134 60.915000000000006 L 72.134 74.45 C 78.623 67.757 83.355 60.31100000000001 83.30199999999999 50.604 C 82.901 48.893 81.896 48.441 80.235 49.295 z" stroke-linecap="round" />
</g>
		<g transform="matrix(1 0 0 1 -14.69 1.18)"  >
<polygon style="stroke: none; stroke-width: 1; stroke-dasharray: none; stroke-linecap: butt; stroke-dashoffset: 0; stroke-linejoin: miter; stroke-miterlimit: 4; fill: rgb(255,0,0); fill-rule: nonzero; opacity: 1;" vector-effect="non-scaling-stroke"  points="17.31,11.55 17.15,11.34 17,11.09 16.75,10.89 16.45,10.74 16.1,10.54 15.69,10.39 15.24,10.24 14.69,10.14 14.14,10.04 13.58,9.93 12.93,9.88 11.92,9.88 11.57,9.23 11.32,8.93 11.12,8.58 10.87,8.22 10.61,7.92 10.36,7.57 10.11,7.27 9.81,6.92 9.51,6.62 9.21,6.31 8.9,6.01 8.55,5.71 8.2,5.41 7.85,5.16 7.5,4.9 7.14,4.66 6.74,4.45 6.34,4.2 5.94,4 5.53,3.85 5.08,3.7 4.63,3.55 4.17,3.4 3.67,3.3 3.22,3.24 2.72,3.2 2.16,3.14 1.66,3.14 1.11,3.14 0.55,3.2 0,3.3 -0.8,3.45 -1.71,2.94 -2.41,2.54 -3.07,2.09 -3.72,1.63 -4.33,1.13 -4.93,0.68 -5.48,0.17 -5.99,-0.33 -6.49,-0.78 -6.89,-1.23 -7.29,-1.74 -7.65,-2.14 -8,-2.54 -8.25,-2.94 -8.45,-3.3 -8.55,-3.65 -8.65,-4 -8.55,-4.45 -8.25,-4.75 -7.9,-4.9 -7.5,-5.01 -7.09,-5.06 -6.59,-5.06 -6.04,-5.01 -5.48,-4.9 -4.83,-4.75 -4.12,-4.55 -3.42,-4.25 -2.67,-3.9 -1.81,-3.5 -1.01,-2.99 -0.45,-2.64 -0.35,-2.69 -0.1,-2.99 0.1,-3.3 0.25,-3.75 0.3,-4.25 0.4,-4.8 0.45,-5.46 0.5,-6.11 0.65,-6.77 0.86,-7.42 1.21,-8.12 1.71,-8.73 2.36,-9.28 3.17,-9.79 4.23,-10.14 5.28,-10.34 5.78,-10.79 6.44,-11.34 7.14,-11.85 7.8,-12.3 8.5,-12.7 9.16,-13.11 9.76,-13.46 10.31,-13.81 10.82,-14.11 11.22,-14.41 11.57,-14.72 11.77,-14.92 11.87,-15.07 11.87,-15.17 11.87,-15.22 11.77,-15.32 11.47,-15.47 10.97,-15.72 10.56,-16.02 10.11,-16.37 9.71,-16.73 9.36,-17.13 9,-17.53 8.65,-17.93 8.35,-18.39 8.05,-18.84 7.8,-19.29 7.55,-19.74 7.34,-20.2 7.14,-20.65 6.94,-21.1 6.84,-21.56 6.69,-22.01 6.59,-22.41 6.54,-22.81 6.49,-23.22 6.49,-23.62 6.54,-24.02 6.59,-24.37 6.69,-24.68 6.84,-25.03 7.04,-25.28 7.29,-25.53 7.6,-25.73 7.95,-25.83 8.35,-25.83 8.75,-25.78 8.9,-25.73 8.95,-25.78 8.95,-25.83 8.8,-26.08 8.55,-26.39 8.25,-26.74 7.85,-27.09 7.34,-27.44 6.84,-27.74 6.29,-28.05 5.68,-28.25 5.13,-28.4 4.58,-28.45 4.07,-28.4 3.87,-28.35 3.72,-27.95 3.47,-27.24 3.27,-26.59 3.12,-25.93 2.97,-25.28 2.82,-24.68 2.72,-24.07 2.62,-23.47 2.57,-22.86 2.51,-22.31 2.46,-21.76 2.41,-21.25 2.36,-20.75 2.31,-20.25 2.31,-19.8 2.26,-19.34 2.26,-18.89 2.21,-18.49 2.21,-18.08 2.16,-17.73 2.11,-17.33 2.06,-17.03 1.96,-16.73 1.86,-16.43 1.71,-16.12 1.56,-15.87 1.36,-15.62 1.11,-15.42 0.81,-15.32 0.5,-15.22 0.15,-15.17 -0.35,-15.22 -1.51,-16.02 -2.46,-16.68 -3.22,-17.28 -3.87,-17.88 -4.43,-18.44 -4.88,-18.94 -5.18,-19.44 -5.43,-20 -5.53,-20.5 -5.58,-20.95 -5.48,-21.46 -5.33,-21.86 -5.08,-22.26 -4.83,-22.66 -4.53,-23.02 -4.18,-23.32 -3.82,-23.67 -3.47,-23.97 -3.12,-24.32 -2.77,-24.68 -2.41,-25.03 -2.06,-25.38 -1.76,-25.78 -1.46,-26.18 -1.21,-26.64 -1.01,-27.09 -0.85,-27.59 -0.75,-28.15 -0.7,-28.7 -0.75,-29.35 -0.85,-30.06 -1.11,-29.96 -1.51,-29.71 -2.01,-29.4 -2.52,-29.1 -3.07,-28.75 -3.72,-28.35 -4.33,-27.9 -5.03,-27.39 -5.73,-26.89 -6.44,-26.34 -7.14,-25.73 -7.9,-25.08 -8.65,-24.42 -9.41,-23.72 -10.11,-22.91 -10.87,-22.11 -11.57,-21.3 -12.27,-20.4 -12.98,-19.49 -13.58,-18.49 -14.24,-17.48 -14.79,-16.43 -15.34,-15.32 -15.85,-14.21 -16.25,-13 -16.65,-11.8 -16.95,-10.49 -17.25,-9.18 -17.41,-7.82 -17.51,-6.56 -17.36,-6.16 -17.1,-5.71 -16.75,-5.26 -16.4,-4.8 -16.05,-4.35 -15.59,-3.9 -15.14,-3.5 -14.64,-3.04 -14.08,-2.64 -13.53,-2.24 -12.98,-1.84 -12.38,-1.43 -11.77,-1.08 -11.17,-0.68 -10.51,-0.33 -9.86,0.02 -9.26,0.38 -8.6,0.73 -7.95,1.08 -7.35,1.43 -6.69,1.78 -6.09,2.14 -5.48,2.49 -4.88,2.79 -4.33,3.14 -3.77,3.5 -3.27,3.85 -2.77,4.2 -2.31,4.55 -1.91,4.9 -1.51,5.26 -0.85,6.01 -1.51,6.82 -1.76,7.17 -2.01,7.57 -2.21,7.92 -2.41,8.28 -2.52,8.63 -2.62,8.98 -2.72,9.33 -2.77,9.63 -2.77,9.99 -2.77,10.29 -2.72,10.64 -2.67,10.94 -2.62,11.24 -2.52,11.55 -2.36,11.85 -2.21,12.15 -2.06,12.45 -1.86,12.75 -1.66,13 -1.46,13.31 -1.21,13.56 -0.96,13.81 -0.7,14.06 -0.4,14.31 -0.1,14.56 0.2,14.77 0.55,15.02 0.86,15.22 1.21,15.42 1.56,15.62 2.31,16.02 2.11,16.88 1.96,17.28 1.86,17.68 1.71,18.09 1.56,18.49 1.41,18.89 1.21,19.29 1.06,19.65 0.86,20.05 0.71,20.4 0.5,20.75 0.35,21.15 0.15,21.51 0,21.86 -0.15,22.21 -0.3,22.56 -0.45,22.96 -0.6,23.32 -0.7,23.67 -0.8,24.02 -0.9,24.37 -1.01,24.72 -1.06,25.13 -1.11,25.48 -1.16,25.83 -1.16,26.23 -1.16,26.59 -1.11,26.99 -1.06,27.39 -0.96,27.8 -0.96,27.89 -0.7,27.84 -0.15,27.84 0.35,28 0.75,28.3 1.11,28.6 1.41,28.9 1.76,29.25 2.01,29.56 2.31,29.8 2.57,29.96 2.72,30.06 2.87,30.06 3.02,30.06 3.17,29.91 3.47,29.6 3.97,28.9 4.53,28.25 5.08,27.54 5.63,26.94 6.19,26.28 6.79,25.68 7.34,25.13 7.95,24.52 8.5,23.97 9.11,23.42 9.66,22.91 10.21,22.36 10.82,21.86 11.32,21.36 11.87,20.9 12.43,20.4 12.93,19.9 13.38,19.44 13.88,18.94 14.34,18.49 14.74,18.03 15.14,17.58 15.54,17.08 15.9,16.63 16.2,16.17 16.5,15.67 16.75,15.22 16.95,14.77 17.15,14.26 17.31,13.76 17.41,13.31 17.46,12.75 17.51,12.4 17.51,12.1 17.41,11.8 " />
</g>
		<g transform="matrix(1 0 0 1 1.76 -24.77)"  >
<path style="stroke: none; stroke-width: 1; stroke-dasharray: none; stroke-linecap: butt; stroke-dashoffset: 0; stroke-linejoin: miter; stroke-miterlimit: 4; fill: rgb(255,0,0); fill-rule: nonzero; opacity: 1;" vector-effect="non-scaling-stroke"  transform=" translate(-51.76, -25.23)" d="M 42.103 20.521 C 49.599000000000004 20.671 46.58 32.998000000000005 51.410000000000004 32.845 C 54.379000000000005 28.166999999999998 66.101 27.11 63.231 19.817999999999998 C 56.24 17.401999999999997 48.541000000000004 17.049999999999997 39.99 18.409 C 39.385 19.313 40.693 20.471 42.103 20.521 z" stroke-linecap="round" />
</g>
</g>
</g>
<g transform="matrix(NaN NaN NaN NaN 0 0)"  >
<g style=""   >
</g>
</g>
<g transform="matrix(NaN NaN NaN NaN 0 0)"  >
<g style=""   >
</g>
</g>
<g transform="matrix(12.02 0 0 12.02 560.17 540)"  >
<g style="" vector-effect="non-scaling-stroke"   >
		<g transform="matrix(1 0 0 1 0.62 0.46)"  >
<polygon style="stroke: none; stroke-width: 1; stroke-dasharray: none; stroke-linecap: butt; stroke-dashoffset: 0; stroke-linejoin: miter; stroke-miterlimit: 4; fill: rgb(8,8,8); fill-rule: nonzero; opacity: 1;" vector-effect="non-scaling-stroke"  points="22.56,11.37 19.82,11.37 19.82,3.85 -19.87,3.85 -19.87,11.37 -22.56,11.37 -22.45,0.94 -1.48,0.94 -1.69,-11.37 1.8,-11.37 1.75,0.94 22.56,0.94 " />
</g>
		<g transform="matrix(1 0 0 1 -0.3 -22.96)"  >
<rect style="stroke: none; stroke-width: 1; stroke-dasharray: none; stroke-linecap: butt; stroke-dashoffset: 0; stroke-linejoin: miter; stroke-miterlimit: 4; fill: rgb(8,8,8); fill-rule: nonzero; opacity: 1;" vector-effect="non-scaling-stroke"  x="-21.806" y="-13.229" rx="0" ry="0" width="43.612" height="26.458" />
</g>
		<g transform="matrix(1 0 0 1 -20.84 23.61)"  >
<rect style="stroke: none; stroke-width: 1; stroke-dasharray: none; stroke-linecap: butt; stroke-dashoffset: 0; stroke-linejoin: miter; stroke-miterlimit: 4; fill: rgb(8,8,8); fill-rule: nonzero; opacity: 1;" vector-effect="non-scaling-stroke"  x="-15.4615" y="-12.5845" rx="0" ry="0" width="30.923" height="25.169" />
</g>
		<g transform="matrix(1 0 0 1 20.84 23.61)"  >
<rect style="stroke: none; stroke-width: 1; stroke-dasharray: none; stroke-linecap: butt; stroke-dashoffset: 0; stroke-linejoin: miter; stroke-miterlimit: 4; fill: rgb(8,8,8); fill-rule: nonzero; opacity: 1;" vector-effect="non-scaling-stroke"  x="-15.463" y="-12.5845" rx="0" ry="0" width="30.926" height="25.169" />
</g>
</g>
</g>
<g transform="matrix(6.05 0 0 6.05 559.05 257.57)" id="1736471e-51e8-4438-921b-80d32936cf18"  >
<rect style="stroke: rgb(0,0,0); stroke-width: 0; stroke-dasharray: none; stroke-linecap: butt; stroke-dashoffset: 0; stroke-linejoin: miter; stroke-miterlimit: 4; fill: rgb(237,0,0); fill-rule: nonzero; opacity: 1;" vector-effect="non-scaling-stroke"  x="-37.4585" y="-19.4165" rx="0" ry="0" width="74.917" height="38.833" />
</g>
<g transform="matrix(4.08 0 0 5.68 304.57 818.44)" id="f234b5c5-6c97-4685-83fd-e50d9a8c6d37"  >
<rect style="stroke: rgb(0,0,0); stroke-width: 0; stroke-dasharray: none; stroke-linecap: butt; stroke-dashoffset: 0; stroke-linejoin: miter; stroke-miterlimit: 4; fill: rgb(247,0,0); fill-rule: nonzero; opacity: 1;" vector-effect="non-scaling-stroke"  x="-37.4585" y="-19.4165" rx="0" ry="0" width="74.917" height="38.833" />
</g>
<g transform="matrix(4.3 0 0 5.68 811.15 811.43)" id="521d4624-97ee-4732-bfeb-d6163e14a9ea"  >
<rect style="stroke: rgb(0,0,0); stroke-width: 0; stroke-dasharray: none; stroke-linecap: butt; stroke-dashoffset: 0; stroke-linejoin: miter; stroke-miterlimit: 4; fill: rgb(255,7,7); fill-rule: nonzero; opacity: 1;" vector-effect="non-scaling-stroke"  x="-37.4585" y="-19.4165" rx="0" ry="0" width="74.917" height="38.833" />
</g>
<g transform="matrix(2.07 0 0 2.07 307.47 816.8)" id="b58f65a5-8845-4e22-b187-3278093aeaa2"  >
<path style="stroke: rgb(0,0,0); stroke-width: 0; stroke-dasharray: none; stroke-linecap: butt; stroke-dashoffset: 0; stroke-linejoin: miter; stroke-miterlimit: 4; fill: rgb(2,2,2); fill-rule: nonzero; opacity: 1;" vector-effect="non-scaling-stroke"  transform=" translate(-50, -50)" d="M 81.739 19.116 L 18.261 19.116 C 15.591999999999999 19.116 13.398 21.253 13.398 23.926 L 13.398 61.81099999999999 C 13.398 64.428 15.591999999999999 66.619 18.261 66.619 L 45.085 66.619 L 61.969 80.886 L 55.61 66.618 L 81.739 66.618 C 84.412 66.618 86.602 64.428 86.602 61.809999999999995 L 86.602 23.926 C 86.603 21.253 84.412 19.116 81.739 19.116 z M 27.881 28.681 L 59.885 28.681 L 59.885 33.596000000000004 L 27.881 33.596000000000004 L 27.881 28.681 z M 27.881 37.979 L 66.08500000000001 37.979 L 66.08500000000001 42.947 L 27.881 42.947 L 27.881 37.979 z M 27.881 47.328 L 51.819 47.328 L 51.819 52.245000000000005 L 27.881 52.245000000000005 L 27.881 47.328 z" stroke-linecap="round" />
</g>
<g transform="matrix(2.95 0 0 2.95 571.31 247.1)"  >
<g style="" vector-effect="non-scaling-stroke"   >
		<g transform="matrix(1 0 0 1 -15.06 3.04)"  >
<path style="stroke: none; stroke-width: 1; stroke-dasharray: none; stroke-linecap: butt; stroke-dashoffset: 0; stroke-linejoin: miter; stroke-miterlimit: 4; fill: rgb(0,0,0); fill-rule: nonzero; opacity: 1;" vector-effect="non-scaling-stroke"  transform=" translate(-34.94, -53.04)" d="M 16.583 30.762 L 42.528 30.762 C 43.985 30.762 45.179 31.853 45.336999999999996 33.205 L 40.708999999999996 37.884 C 39.409 39.133 38.785 40.797 38.785 42.461 C 38.785 42.721 38.785 42.981 38.836999999999996 43.24 L 28.698 43.24 C 26.826 43.24 24.85 44.801 24.279 46.672000000000004 L 16.114 75.322 C 14.763000000000002 75.114 13.722000000000001 73.96900000000001 13.722000000000001 72.565 L 13.722000000000001 33.569 C 13.723 32.008 15.023 30.762 16.583 30.762 z M 56.151 43.24 L 56.047000000000004 43.24 L 56.151 43.188 L 56.151 43.24 z" stroke-linecap="round" />
</g>
		<g transform="matrix(1 0 0 1 2.28 13)"  >
<path style="stroke: none; stroke-width: 1; stroke-dasharray: none; stroke-linecap: butt; stroke-dashoffset: 0; stroke-linejoin: miter; stroke-miterlimit: 4; fill: rgb(0,0,0); fill-rule: nonzero; opacity: 1;" vector-effect="non-scaling-stroke"  transform=" translate(-52.28, -63)" d="M 86.153 49.011 L 78.19600000000001 76.98400000000001 C 77.67600000000002 78.64800000000001 75.909 80.052 74.24500000000002 80.052 L 20.585000000000022 80.052 C 18.923000000000023 80.052 17.934000000000022 78.64800000000001 18.403000000000024 76.98400000000001 L 26.410000000000025 49.01100000000001 C 26.878000000000025 47.34700000000001 28.646000000000026 45.94300000000001 30.362000000000023 45.94300000000001 L 39.77400000000002 45.94300000000001 C 40.03400000000002 46.360000000000014 40.34500000000002 46.72400000000001 40.709000000000024 47.088000000000015 L 40.709000000000024 47.140000000000015 C 42.99700000000002 49.271000000000015 46.532000000000025 47.91900000000002 50.58800000000002 45.94300000000001 L 56.15200000000002 45.94300000000001 L 56.15200000000002 65.23400000000001 C 56.15200000000002 67.93900000000001 58.38700000000002 70.174 61.090000000000025 70.174 L 65.87400000000002 70.174 C 68.57700000000003 70.174 70.76300000000002 67.93900000000001 70.76300000000002 65.23400000000001 L 70.76300000000002 45.943 L 75.49300000000002 45.943 C 79.39300000000003 47.867 82.87700000000002 49.114999999999995 85.32000000000002 47.242999999999995 L 85.42400000000002 47.190999999999995 L 85.52800000000002 47.086999999999996 C 85.63200000000002 46.983 85.73600000000002 46.879 85.78800000000003 46.775 C 86.258 47.295 86.411 48.128 86.153 49.011 z" stroke-linecap="round" />
</g>
		<g transform="matrix(1 0 0 1 13.1 -5.82)"  >
<path style="stroke: none; stroke-width: 1; stroke-dasharray: none; stroke-linecap: butt; stroke-dashoffset: 0; stroke-linejoin: miter; stroke-miterlimit: 4; fill: rgb(0,0,0); fill-rule: nonzero; opacity: 1;" vector-effect="non-scaling-stroke"  transform=" translate(-63.1, -44.18)" d="M 84.28 45.839 C 86.099 43.967 86.099 40.952 84.28 39.132 L 66.445 21.35 C 64.62599999999999 19.478 61.61099999999999 19.478 59.73899999999999 21.35 L 41.957 39.132 C 40.085 40.952 40.085 43.967 41.957 45.839 C 44.504 48.233 51.574 42.98 57.919 40.485 L 57.919 65.234 C 57.919 67.002 59.373999999999995 68.40599999999999 61.089999999999996 68.40599999999999 L 65.874 68.40599999999999 C 67.591 68.40599999999999 68.993 67.002 68.993 65.234 L 68.993 40.796 C 75.026 43.344 81.421 48.024 84.28 45.839 z" stroke-linecap="round" />
</g>
		<g transform="matrix(1 0 0 1 13.1 -5.82)"  >
<path style="stroke: none; stroke-width: 1; stroke-dasharray: none; stroke-linecap: butt; stroke-dashoffset: 0; stroke-linejoin: miter; stroke-miterlimit: 4; fill: rgb(0,0,0); fill-rule: nonzero; opacity: 1;" vector-effect="non-scaling-stroke"  transform=" translate(-63.1, -44.18)" d="M 84.28 45.839 C 86.099 43.967 86.099 40.952 84.28 39.132 L 66.445 21.35 C 64.62599999999999 19.478 61.61099999999999 19.478 59.73899999999999 21.35 L 41.957 39.132 C 40.085 40.952 40.085 43.967 41.957 45.839 C 44.504 48.233 51.574 42.98 57.919 40.485 L 57.919 65.234 C 57.919 67.002 59.373999999999995 68.40599999999999 61.089999999999996 68.40599999999999 L 65.874 68.40599999999999 C 67.591 68.40599999999999 68.993 67.002 68.993 65.234 L 68.993 40.796 C 75.026 43.344 81.421 48.024 84.28 45.839 z" stroke-linecap="round" />
</g>
</g>
</g>
<g transform="matrix(2.18 0 0 2.18 827.6 803.21)" id="c2f36347-a2d4-4c06-8616-0ad54c189c65"  >
<path style="stroke: rgb(0,0,0); stroke-width: 0; stroke-dasharray: none; stroke-linecap: butt; stroke-dashoffset: 0; stroke-linejoin: miter; stroke-miterlimit: 4; fill: rgb(0,0,0); fill-rule: nonzero; opacity: 1;" vector-effect="non-scaling-stroke"  transform=" translate(-50, -50)" d="M 14.148 44.105 L 18.091 40.162 C 20.01 38.242 23.176000000000002 38.242 25.096 40.162 L 42.164 57.230999999999995 L 74.904 24.440999999999995 C 76.823 22.521999999999995 79.98899999999999 22.521999999999995 81.90899999999999 24.440999999999995 L 85.851 28.383999999999997 C 87.771 30.302999999999997 87.771 33.415 85.851 35.334999999999994 L 45.641 75.54499999999999 L 45.537 75.64899999999999 L 45.433 75.75299999999999 L 45.329 75.80499999999999 L 45.277 75.90899999999999 L 45.173 75.961 L 45.069 76.065 L 44.965 76.117 L 44.861000000000004 76.16900000000001 L 44.757000000000005 76.27400000000002 L 44.653000000000006 76.32400000000001 L 44.54900000000001 76.37800000000001 L 44.44500000000001 76.43000000000002 L 44.34100000000001 76.48200000000003 L 44.23700000000001 76.53400000000003 L 44.08000000000001 76.58600000000004 L 43.97600000000001 76.63800000000005 L 43.872000000000014 76.69000000000005 L 43.768000000000015 76.74200000000006 L 43.664000000000016 76.74200000000006 L 43.56000000000002 76.79400000000007 L 43.405000000000015 76.84700000000007 L 43.301000000000016 76.84700000000007 L 43.19700000000002 76.89900000000007 L 42.93800000000002 76.89900000000007 L 42.83400000000002 76.95100000000008 L 42.62600000000002 76.95100000000008 L 42.47100000000002 77.00300000000009 L 41.795000000000016 77.00300000000009 L 41.640000000000015 76.95100000000008 L 41.432000000000016 76.95100000000008 L 41.32800000000002 76.89900000000007 L 41.06900000000002 76.89900000000007 L 40.96500000000002 76.84700000000007 L 40.86100000000002 76.84700000000007 L 40.70600000000002 76.79400000000007 L 40.60200000000002 76.74200000000006 L 40.49800000000002 76.74200000000006 L 40.39400000000002 76.69000000000005 L 40.29000000000002 76.63800000000005 L 40.185000000000024 76.58600000000004 L 40.081000000000024 76.53400000000003 L 40.029000000000025 76.53400000000003 C 39.563000000000024 76.32500000000003 39.096000000000025 75.96200000000003 38.630000000000024 75.54800000000003 L 14.140000000000025 51.059000000000026 C 12.229 49.137 12.229 46.025 14.148 44.105 z" stroke-linecap="round" />
</g>
</svg>