<?xml version="1.0" encoding="UTF-8" standalone="no" ?>
<!DOCTYPE svg PUBLIC "-//W3C//DTD SVG 1.1//EN" "http://www.w3.org/Graphics/SVG/1.1/DTD/svg11.dtd">
<svg xmlns="http://www.w3.org/2000/svg" xmlns:xlink="http://www.w3.org/1999/xlink" version="1.1" width="1080" height="1080" viewBox="0 0 1080 1080" xml:space="preserve">
<desc>Created with Fabric.js 5.2.4</desc>
<defs>
</defs>
<rect x="0" y="0" width="100%" height="100%" fill="transparent"></rect>
<g transform="matrix(1 0 0 1 540 540)" id="6cc38a5a-d728-4ca4-8249-2caa9280dc20"  >
<rect style="stroke: none; stroke-width: 1; stroke-dasharray: none; stroke-linecap: butt; stroke-dashoffset: 0; stroke-linejoin: miter; stroke-miterlimit: 4; fill: rgb(32,169,193); fill-rule: nonzero; opacity: 1;" vector-effect="non-scaling-stroke"  x="-540" y="-540" rx="0" ry="0" width="1080" height="1080" />
</g>
<g transform="matrix(1 0 0 1 540 540)" id="fa0c79ce-b7c9-43f2-8b3a-327331ef3b83"  >
</g>
<g transform="matrix(NaN NaN NaN NaN 0 0)"  >
<g style=""   >
</g>
</g>
<g transform="matrix(NaN NaN NaN NaN 0 0)"  >
<g style=""   >
</g>
</g>
<g transform="matrix(NaN NaN NaN NaN 0 0)"  >
<g style=""   >
</g>
</g>
<g transform="matrix(NaN NaN NaN NaN 0 0)"  >
<g style=""   >
</g>
</g>
<g transform="matrix(NaN NaN NaN NaN 0 0)"  >
<g style=""   >
</g>
</g>
<g transform="matrix(10.09 0 0 10.09 559.5 540)"  >
<g style="" vector-effect="non-scaling-stroke"   >
		<g transform="matrix(1 0 0 1 0.62 0.46)"  >
<polygon style="stroke: none; stroke-width: 1; stroke-dasharray: none; stroke-linecap: butt; stroke-dashoffset: 0; stroke-linejoin: miter; stroke-miterlimit: 4; fill: rgb(0,0,0); fill-rule: nonzero; opacity: 1;" vector-effect="non-scaling-stroke"  points="22.56,11.37 19.82,11.37 19.82,3.85 -19.87,3.85 -19.87,11.37 -22.56,11.37 -22.45,0.94 -1.48,0.94 -1.69,-11.37 1.8,-11.37 1.75,0.94 22.56,0.94 " />
</g>
		<g transform="matrix(1 0 0 1 -0.3 -22.96)"  >
<rect style="stroke: none; stroke-width: 1; stroke-dasharray: none; stroke-linecap: butt; stroke-dashoffset: 0; stroke-linejoin: miter; stroke-miterlimit: 4; fill: rgb(0,0,0); fill-rule: nonzero; opacity: 1;" vector-effect="non-scaling-stroke"  x="-21.806" y="-13.229" rx="0" ry="0" width="43.612" height="26.458" />
</g>
		<g transform="matrix(1 0 0 1 -20.84 23.61)"  >
<rect style="stroke: none; stroke-width: 1; stroke-dasharray: none; stroke-linecap: butt; stroke-dashoffset: 0; stroke-linejoin: miter; stroke-miterlimit: 4; fill: rgb(0,0,0); fill-rule: nonzero; opacity: 1;" vector-effect="non-scaling-stroke"  x="-15.4615" y="-12.5845" rx="0" ry="0" width="30.923" height="25.169" />
</g>
		<g transform="matrix(1 0 0 1 20.84 23.61)"  >
<rect style="stroke: none; stroke-width: 1; stroke-dasharray: none; stroke-linecap: butt; stroke-dashoffset: 0; stroke-linejoin: miter; stroke-miterlimit: 4; fill: rgb(0,0,0); fill-rule: nonzero; opacity: 1;" vector-effect="non-scaling-stroke"  x="-15.463" y="-12.5845" rx="0" ry="0" width="30.926" height="25.169" />
</g>
</g>
</g>
<g transform="matrix(5.37 0 0 2.57 555.79 313.58)" id="c3493dcc-3f5b-400d-93c1-130b3425c72c"  >
<rect style="stroke: rgb(32,169,193); stroke-width: 0; stroke-dasharray: none; stroke-linecap: butt; stroke-dashoffset: 0; stroke-linejoin: miter; stroke-miterlimit: 4; fill: rgb(32,169,193); fill-rule: nonzero; opacity: 1;" vector-effect="non-scaling-stroke"  x="-37.167" y="-37.167" rx="0" ry="0" width="74.334" height="74.334" />
</g>
<g transform="matrix(NaN NaN NaN NaN 0 0)"  >
<g style=""   >
</g>
</g>
<g transform="matrix(NaN NaN NaN NaN 0 0)"  >
<g style=""   >
</g>
</g>
<g transform="matrix(3.59 0 0 2.44 348.17 767.31)" id="2522dd58-622f-4ea6-98f3-58d7e71d6c8a"  >
<rect style="stroke: rgb(0,0,0); stroke-width: 0; stroke-dasharray: none; stroke-linecap: butt; stroke-dashoffset: 0; stroke-linejoin: miter; stroke-miterlimit: 4; fill: rgb(32,169,193); fill-rule: nonzero; opacity: 1;" vector-effect="non-scaling-stroke"  x="-37.167" y="-37.167" rx="0" ry="0" width="74.334" height="74.334" />
</g>
<g transform="matrix(NaN NaN NaN NaN 0 0)"  >
<g style=""   >
</g>
</g>
<g transform="matrix(3.69 0 0 2.5 768.78 764.04)" id="c7af90f3-6dcf-47e5-bcb3-7ae013842f6c"  >
<rect style="stroke: rgb(0,0,0); stroke-width: 0; stroke-dasharray: none; stroke-linecap: butt; stroke-dashoffset: 0; stroke-linejoin: miter; stroke-miterlimit: 4; fill: rgb(32,169,193); fill-rule: nonzero; opacity: 1;" vector-effect="non-scaling-stroke"  x="-37.167" y="-37.167" rx="0" ry="0" width="74.334" height="74.334" />
</g>
<g transform="matrix(NaN NaN NaN NaN 0 0)"  >
<g style=""   >
</g>
</g>
<g transform="matrix(2.76 0 0 2.15 343.12 774.23)" id="e0e66fcd-637d-45fe-9ada-619797845567"  >
<path style="stroke: rgb(0,0,0); stroke-width: 0; stroke-dasharray: none; stroke-linecap: butt; stroke-dashoffset: 0; stroke-linejoin: miter; stroke-miterlimit: 4; fill: rgb(0,0,0); fill-rule: nonzero; opacity: 1;" vector-effect="non-scaling-stroke"  transform=" translate(-50, -50)" d="M 81.739 19.116 L 18.261 19.116 C 15.591999999999999 19.116 13.398 21.253 13.398 23.926 L 13.398 61.81099999999999 C 13.398 64.428 15.591999999999999 66.619 18.261 66.619 L 45.085 66.619 L 61.969 80.886 L 55.61 66.618 L 81.739 66.618 C 84.412 66.618 86.602 64.428 86.602 61.809999999999995 L 86.602 23.926 C 86.603 21.253 84.412 19.116 81.739 19.116 z M 27.881 28.681 L 59.885 28.681 L 59.885 33.596000000000004 L 27.881 33.596000000000004 L 27.881 28.681 z M 27.881 37.979 L 66.08500000000001 37.979 L 66.08500000000001 42.947 L 27.881 42.947 L 27.881 37.979 z M 27.881 47.328 L 51.819 47.328 L 51.819 52.245000000000005 L 27.881 52.245000000000005 L 27.881 47.328 z" stroke-linecap="round" />
</g>
<g transform="matrix(1.76 0 0 1.66 772.44 772.57)" id="1801f9bd-8125-4581-a387-d60d75d7a63c"  >
<path style="stroke: rgb(0,0,0); stroke-width: 0; stroke-dasharray: none; stroke-linecap: butt; stroke-dashoffset: 0; stroke-linejoin: miter; stroke-miterlimit: 4; fill: rgb(0,0,0); fill-rule: nonzero; opacity: 1;" vector-effect="non-scaling-stroke"  transform=" translate(-50, -50)" d="M 14.148 44.105 L 18.091 40.162 C 20.01 38.242 23.176000000000002 38.242 25.096 40.162 L 42.164 57.230999999999995 L 74.904 24.440999999999995 C 76.823 22.521999999999995 79.98899999999999 22.521999999999995 81.90899999999999 24.440999999999995 L 85.851 28.383999999999997 C 87.771 30.302999999999997 87.771 33.415 85.851 35.334999999999994 L 45.641 75.54499999999999 L 45.537 75.64899999999999 L 45.433 75.75299999999999 L 45.329 75.80499999999999 L 45.277 75.90899999999999 L 45.173 75.961 L 45.069 76.065 L 44.965 76.117 L 44.861000000000004 76.16900000000001 L 44.757000000000005 76.27400000000002 L 44.653000000000006 76.32400000000001 L 44.54900000000001 76.37800000000001 L 44.44500000000001 76.43000000000002 L 44.34100000000001 76.48200000000003 L 44.23700000000001 76.53400000000003 L 44.08000000000001 76.58600000000004 L 43.97600000000001 76.63800000000005 L 43.872000000000014 76.69000000000005 L 43.768000000000015 76.74200000000006 L 43.664000000000016 76.74200000000006 L 43.56000000000002 76.79400000000007 L 43.405000000000015 76.84700000000007 L 43.301000000000016 76.84700000000007 L 43.19700000000002 76.89900000000007 L 42.93800000000002 76.89900000000007 L 42.83400000000002 76.95100000000008 L 42.62600000000002 76.95100000000008 L 42.47100000000002 77.00300000000009 L 41.795000000000016 77.00300000000009 L 41.640000000000015 76.95100000000008 L 41.432000000000016 76.95100000000008 L 41.32800000000002 76.89900000000007 L 41.06900000000002 76.89900000000007 L 40.96500000000002 76.84700000000007 L 40.86100000000002 76.84700000000007 L 40.70600000000002 76.79400000000007 L 40.60200000000002 76.74200000000006 L 40.49800000000002 76.74200000000006 L 40.39400000000002 76.69000000000005 L 40.29000000000002 76.63800000000005 L 40.185000000000024 76.58600000000004 L 40.081000000000024 76.53400000000003 L 40.029000000000025 76.53400000000003 C 39.563000000000024 76.32500000000003 39.096000000000025 75.96200000000003 38.630000000000024 75.54800000000003 L 14.140000000000025 51.059000000000026 C 12.229 49.137 12.229 46.025 14.148 44.105 z" stroke-linecap="round" />
</g>
<g transform="matrix(1.89 0 0 1.89 557.31 312.83)"  >
<g style="" vector-effect="non-scaling-stroke"   >
		<g transform="matrix(1 0 0 1 -15.02 2.36)"  >
<path style="stroke: none; stroke-width: 1; stroke-dasharray: none; stroke-linecap: butt; stroke-dashoffset: 0; stroke-linejoin: miter; stroke-miterlimit: 4; fill: rgb(0,0,0); fill-rule: nonzero; opacity: 1;" vector-effect="non-scaling-stroke"  transform=" translate(-34.36, -51.86)" d="M 15.085 29.135 L 41.601 29.135 C 43.193 29.135 44.466 30.408 44.466 32 L 44.466 36.613 L 56.505 36.613 L 56.505 41.863 L 49.505 41.863 C 45.949000000000005 40.219 42.821000000000005 39.317 40.753 41.278999999999996 L 40.7 41.331999999999994 C 40.541000000000004 41.492999999999995 40.382000000000005 41.651999999999994 40.223000000000006 41.86299999999999 L 27.495 41.86299999999999 C 25.535 41.86299999999999 23.517 43.45499999999999 22.988 45.36299999999999 L 14.609 74.585 C 13.283 74.37299999999999 12.222999999999999 73.15199999999999 12.222999999999999 71.77499999999999 L 12.222999999999999 32 C 12.223 30.408 13.547 29.135 15.085 29.135 z" stroke-linecap="round" />
</g>
		<g transform="matrix(1 0 0 1 1.44 12.52)"  >
<path style="stroke: none; stroke-width: 1; stroke-dasharray: none; stroke-linecap: butt; stroke-dashoffset: 0; stroke-linejoin: miter; stroke-miterlimit: 4; fill: rgb(0,0,0); fill-rule: nonzero; opacity: 1;" vector-effect="non-scaling-stroke"  transform=" translate(-50.82, -62.02)" d="M 84.771 52.364 L 77.93 76.281 C 77.45100000000001 77.98 75.65 79.412 73.95100000000001 79.412 L 19.222 79.412 C 17.525000000000002 79.412 16.516000000000002 77.98 16.995 76.281 L 25.162 47.75000000000001 C 25.641 46.053000000000004 27.442 44.620000000000005 29.14 44.620000000000005 L 38.897999999999996 44.620000000000005 C 38.791999999999994 45.097 38.739 45.57600000000001 38.739 45.999 C 38.739 47.697 39.428 49.394000000000005 40.701 50.718 L 58.838 68.855 C 60.164 70.181 61.859 70.81700000000001 63.559 70.81700000000001 C 65.25399999999999 70.81700000000001 66.952 70.18100000000001 68.225 68.855 L 84.771 52.364 z M 55.125 44.621 L 56.505 44.621 L 56.505 45.309000000000005 C 56.027 45.098 55.549 44.886 55.125 44.621 z M 71.353 44.621 L 71.991 44.621 L 71.353 44.939 L 71.353 44.621 z" stroke-linecap="round" />
</g>
		<g transform="matrix(1 0 0 1 14.18 -5.2)"  >
<path style="stroke: none; stroke-width: 1; stroke-dasharray: none; stroke-linecap: butt; stroke-dashoffset: 0; stroke-linejoin: miter; stroke-miterlimit: 4; fill: rgb(0,0,0); fill-rule: nonzero; opacity: 1;" vector-effect="non-scaling-stroke"  transform=" translate(-63.56, -44.3)" d="M 85.144 42.605 C 86.99900000000001 44.461 86.99900000000001 47.538 85.144 49.446999999999996 L 66.951 67.583 C 65.095 69.495 62.019999999999996 69.495 60.10999999999999 67.583 L 41.974 49.448 C 40.117999999999995 47.539 40.117999999999995 44.462 41.974 42.606 C 44.57299999999999 40.167 51.836999999999996 45.523 58.30799999999999 48.069 L 58.30799999999999 22.771 C 58.30799999999999 21.021 59.74099999999999 19.588 61.49099999999999 19.588 L 66.369 19.588 C 68.12 19.588 69.553 21.021 69.553 22.771 L 69.553 47.75 C 75.7 45.15 82.226 40.378 85.144 42.605 z" stroke-linecap="round" />
</g>
</g>
</g>
</svg>